<?xml version="1.0" encoding="utf-8" standalone="no"?>
<!DOCTYPE svg PUBLIC "-//W3C//DTD SVG 1.1//EN"
  "http://www.w3.org/Graphics/SVG/1.1/DTD/svg11.dtd">
<svg xmlns:xlink="http://www.w3.org/1999/xlink" width="362.96pt" height="432pt" viewBox="0 0 362.96 432" xmlns="http://www.w3.org/2000/svg" version="1.1">
 <metadata>
  <rdf:RDF xmlns:dc="http://purl.org/dc/elements/1.1/" xmlns:cc="http://creativecommons.org/ns#" xmlns:rdf="http://www.w3.org/1999/02/22-rdf-syntax-ns#">
   <cc:Work>
    <dc:type rdf:resource="http://purl.org/dc/dcmitype/StillImage"/>
    <dc:date>2024-05-01T23:42:01.371170</dc:date>
    <dc:format>image/svg+xml</dc:format>
    <dc:creator>
     <cc:Agent>
      <dc:title>Matplotlib v3.8.3, https://matplotlib.org/</dc:title>
     </cc:Agent>
    </dc:creator>
   </cc:Work>
  </rdf:RDF>
 </metadata>
 <defs>
  <style type="text/css">*{stroke-linejoin: round; stroke-linecap: butt}</style>
 </defs>
 <g id="figure_1">
  <g id="patch_1">
   <path d="M 0 432 
L 362.96 432 
L 362.96 0 
L 0 0 
L 0 432 
z
" style="fill: none"/>
  </g>
  <g id="axes_1">
   <g id="patch_2">
    <path d="M 50.87 195.02 
L 349.124828 195.02 
L 349.124828 24.72 
L 50.87 24.72 
L 50.87 195.02 
z
" style="fill: none"/>
   </g>
   <g id="matplotlib.axis_1">
    <g id="xtick_1"/>
    <g id="xtick_2"/>
    <g id="xtick_3"/>
    <g id="xtick_4"/>
    <g id="xtick_5"/>
    <g id="xtick_6"/>
   </g>
   <g id="matplotlib.axis_2">
    <g id="ytick_1">
     <g id="text_1">
      <!-- 20 -->
      <g style="fill: #262626" transform="translate(31.145 190.225051) scale(0.1 -0.1)">
       <defs>
        <path id="DejaVuSans-32" d="M 1228 531 
L 3431 531 
L 3431 0 
L 469 0 
L 469 531 
Q 828 903 1448 1529 
Q 2069 2156 2228 2338 
Q 2531 2678 2651 2914 
Q 2772 3150 2772 3378 
Q 2772 3750 2511 3984 
Q 2250 4219 1831 4219 
Q 1534 4219 1204 4116 
Q 875 4013 500 3803 
L 500 4441 
Q 881 4594 1212 4672 
Q 1544 4750 1819 4750 
Q 2544 4750 2975 4387 
Q 3406 4025 3406 3419 
Q 3406 3131 3298 2873 
Q 3191 2616 2906 2266 
Q 2828 2175 2409 1742 
Q 1991 1309 1228 531 
z
" transform="scale(0.015625)"/>
        <path id="DejaVuSans-30" d="M 2034 4250 
Q 1547 4250 1301 3770 
Q 1056 3291 1056 2328 
Q 1056 1369 1301 889 
Q 1547 409 2034 409 
Q 2525 409 2770 889 
Q 3016 1369 3016 2328 
Q 3016 3291 2770 3770 
Q 2525 4250 2034 4250 
z
M 2034 4750 
Q 2819 4750 3233 4129 
Q 3647 3509 3647 2328 
Q 3647 1150 3233 529 
Q 2819 -91 2034 -91 
Q 1250 -91 836 529 
Q 422 1150 422 2328 
Q 422 3509 836 4129 
Q 1250 4750 2034 4750 
z
" transform="scale(0.015625)"/>
       </defs>
       <use xlink:href="#DejaVuSans-32"/>
       <use xlink:href="#DejaVuSans-30" x="63.623047"/>
      </g>
     </g>
    </g>
    <g id="ytick_2">
     <g id="text_2">
      <!-- 40 -->
      <g style="fill: #262626" transform="translate(31.145 156.568718) scale(0.1 -0.1)">
       <defs>
        <path id="DejaVuSans-34" d="M 2419 4116 
L 825 1625 
L 2419 1625 
L 2419 4116 
z
M 2253 4666 
L 3047 4666 
L 3047 1625 
L 3713 1625 
L 3713 1100 
L 3047 1100 
L 3047 0 
L 2419 0 
L 2419 1100 
L 313 1100 
L 313 1709 
L 2253 4666 
z
" transform="scale(0.015625)"/>
       </defs>
       <use xlink:href="#DejaVuSans-34"/>
       <use xlink:href="#DejaVuSans-30" x="63.623047"/>
      </g>
     </g>
    </g>
    <g id="ytick_3">
     <g id="text_3">
      <!-- 60 -->
      <g style="fill: #262626" transform="translate(31.145 122.912385) scale(0.1 -0.1)">
       <defs>
        <path id="DejaVuSans-36" d="M 2113 2584 
Q 1688 2584 1439 2293 
Q 1191 2003 1191 1497 
Q 1191 994 1439 701 
Q 1688 409 2113 409 
Q 2538 409 2786 701 
Q 3034 994 3034 1497 
Q 3034 2003 2786 2293 
Q 2538 2584 2113 2584 
z
M 3366 4563 
L 3366 3988 
Q 3128 4100 2886 4159 
Q 2644 4219 2406 4219 
Q 1781 4219 1451 3797 
Q 1122 3375 1075 2522 
Q 1259 2794 1537 2939 
Q 1816 3084 2150 3084 
Q 2853 3084 3261 2657 
Q 3669 2231 3669 1497 
Q 3669 778 3244 343 
Q 2819 -91 2113 -91 
Q 1303 -91 875 529 
Q 447 1150 447 2328 
Q 447 3434 972 4092 
Q 1497 4750 2381 4750 
Q 2619 4750 2861 4703 
Q 3103 4656 3366 4563 
z
" transform="scale(0.015625)"/>
       </defs>
       <use xlink:href="#DejaVuSans-36"/>
       <use xlink:href="#DejaVuSans-30" x="63.623047"/>
      </g>
     </g>
    </g>
    <g id="ytick_4">
     <g id="text_4">
      <!-- 80 -->
      <g style="fill: #262626" transform="translate(31.145 89.256052) scale(0.1 -0.1)">
       <defs>
        <path id="DejaVuSans-38" d="M 2034 2216 
Q 1584 2216 1326 1975 
Q 1069 1734 1069 1313 
Q 1069 891 1326 650 
Q 1584 409 2034 409 
Q 2484 409 2743 651 
Q 3003 894 3003 1313 
Q 3003 1734 2745 1975 
Q 2488 2216 2034 2216 
z
M 1403 2484 
Q 997 2584 770 2862 
Q 544 3141 544 3541 
Q 544 4100 942 4425 
Q 1341 4750 2034 4750 
Q 2731 4750 3128 4425 
Q 3525 4100 3525 3541 
Q 3525 3141 3298 2862 
Q 3072 2584 2669 2484 
Q 3125 2378 3379 2068 
Q 3634 1759 3634 1313 
Q 3634 634 3220 271 
Q 2806 -91 2034 -91 
Q 1263 -91 848 271 
Q 434 634 434 1313 
Q 434 1759 690 2068 
Q 947 2378 1403 2484 
z
M 1172 3481 
Q 1172 3119 1398 2916 
Q 1625 2713 2034 2713 
Q 2441 2713 2670 2916 
Q 2900 3119 2900 3481 
Q 2900 3844 2670 4047 
Q 2441 4250 2034 4250 
Q 1625 4250 1398 4047 
Q 1172 3844 1172 3481 
z
" transform="scale(0.015625)"/>
       </defs>
       <use xlink:href="#DejaVuSans-38"/>
       <use xlink:href="#DejaVuSans-30" x="63.623047"/>
      </g>
     </g>
    </g>
    <g id="ytick_5">
     <g id="text_5">
      <!-- 100 -->
      <g style="fill: #262626" transform="translate(24.7825 55.599719) scale(0.1 -0.1)">
       <defs>
        <path id="DejaVuSans-31" d="M 794 531 
L 1825 531 
L 1825 4091 
L 703 3866 
L 703 4441 
L 1819 4666 
L 2450 4666 
L 2450 531 
L 3481 531 
L 3481 0 
L 794 0 
L 794 531 
z
" transform="scale(0.015625)"/>
       </defs>
       <use xlink:href="#DejaVuSans-31"/>
       <use xlink:href="#DejaVuSans-30" x="63.623047"/>
       <use xlink:href="#DejaVuSans-30" x="127.246094"/>
      </g>
     </g>
    </g>
    <g id="text_6">
     <!-- Prediction -->
     <g style="fill: #262626" transform="translate(18.702813 134.706719) rotate(-90) scale(0.1 -0.1)">
      <defs>
       <path id="DejaVuSans-50" d="M 1259 4147 
L 1259 2394 
L 2053 2394 
Q 2494 2394 2734 2622 
Q 2975 2850 2975 3272 
Q 2975 3691 2734 3919 
Q 2494 4147 2053 4147 
L 1259 4147 
z
M 628 4666 
L 2053 4666 
Q 2838 4666 3239 4311 
Q 3641 3956 3641 3272 
Q 3641 2581 3239 2228 
Q 2838 1875 2053 1875 
L 1259 1875 
L 1259 0 
L 628 0 
L 628 4666 
z
" transform="scale(0.015625)"/>
       <path id="DejaVuSans-72" d="M 2631 2963 
Q 2534 3019 2420 3045 
Q 2306 3072 2169 3072 
Q 1681 3072 1420 2755 
Q 1159 2438 1159 1844 
L 1159 0 
L 581 0 
L 581 3500 
L 1159 3500 
L 1159 2956 
Q 1341 3275 1631 3429 
Q 1922 3584 2338 3584 
Q 2397 3584 2469 3576 
Q 2541 3569 2628 3553 
L 2631 2963 
z
" transform="scale(0.015625)"/>
       <path id="DejaVuSans-65" d="M 3597 1894 
L 3597 1613 
L 953 1613 
Q 991 1019 1311 708 
Q 1631 397 2203 397 
Q 2534 397 2845 478 
Q 3156 559 3463 722 
L 3463 178 
Q 3153 47 2828 -22 
Q 2503 -91 2169 -91 
Q 1331 -91 842 396 
Q 353 884 353 1716 
Q 353 2575 817 3079 
Q 1281 3584 2069 3584 
Q 2775 3584 3186 3129 
Q 3597 2675 3597 1894 
z
M 3022 2063 
Q 3016 2534 2758 2815 
Q 2500 3097 2075 3097 
Q 1594 3097 1305 2825 
Q 1016 2553 972 2059 
L 3022 2063 
z
" transform="scale(0.015625)"/>
       <path id="DejaVuSans-64" d="M 2906 2969 
L 2906 4863 
L 3481 4863 
L 3481 0 
L 2906 0 
L 2906 525 
Q 2725 213 2448 61 
Q 2172 -91 1784 -91 
Q 1150 -91 751 415 
Q 353 922 353 1747 
Q 353 2572 751 3078 
Q 1150 3584 1784 3584 
Q 2172 3584 2448 3432 
Q 2725 3281 2906 2969 
z
M 947 1747 
Q 947 1113 1208 752 
Q 1469 391 1925 391 
Q 2381 391 2643 752 
Q 2906 1113 2906 1747 
Q 2906 2381 2643 2742 
Q 2381 3103 1925 3103 
Q 1469 3103 1208 2742 
Q 947 2381 947 1747 
z
" transform="scale(0.015625)"/>
       <path id="DejaVuSans-69" d="M 603 3500 
L 1178 3500 
L 1178 0 
L 603 0 
L 603 3500 
z
M 603 4863 
L 1178 4863 
L 1178 4134 
L 603 4134 
L 603 4863 
z
" transform="scale(0.015625)"/>
       <path id="DejaVuSans-63" d="M 3122 3366 
L 3122 2828 
Q 2878 2963 2633 3030 
Q 2388 3097 2138 3097 
Q 1578 3097 1268 2742 
Q 959 2388 959 1747 
Q 959 1106 1268 751 
Q 1578 397 2138 397 
Q 2388 397 2633 464 
Q 2878 531 3122 666 
L 3122 134 
Q 2881 22 2623 -34 
Q 2366 -91 2075 -91 
Q 1284 -91 818 406 
Q 353 903 353 1747 
Q 353 2603 823 3093 
Q 1294 3584 2113 3584 
Q 2378 3584 2631 3529 
Q 2884 3475 3122 3366 
z
" transform="scale(0.015625)"/>
       <path id="DejaVuSans-74" d="M 1172 4494 
L 1172 3500 
L 2356 3500 
L 2356 3053 
L 1172 3053 
L 1172 1153 
Q 1172 725 1289 603 
Q 1406 481 1766 481 
L 2356 481 
L 2356 0 
L 1766 0 
Q 1100 0 847 248 
Q 594 497 594 1153 
L 594 3053 
L 172 3053 
L 172 3500 
L 594 3500 
L 594 4494 
L 1172 4494 
z
" transform="scale(0.015625)"/>
       <path id="DejaVuSans-6f" d="M 1959 3097 
Q 1497 3097 1228 2736 
Q 959 2375 959 1747 
Q 959 1119 1226 758 
Q 1494 397 1959 397 
Q 2419 397 2687 759 
Q 2956 1122 2956 1747 
Q 2956 2369 2687 2733 
Q 2419 3097 1959 3097 
z
M 1959 3584 
Q 2709 3584 3137 3096 
Q 3566 2609 3566 1747 
Q 3566 888 3137 398 
Q 2709 -91 1959 -91 
Q 1206 -91 779 398 
Q 353 888 353 1747 
Q 353 2609 779 3096 
Q 1206 3584 1959 3584 
z
" transform="scale(0.015625)"/>
       <path id="DejaVuSans-6e" d="M 3513 2113 
L 3513 0 
L 2938 0 
L 2938 2094 
Q 2938 2591 2744 2837 
Q 2550 3084 2163 3084 
Q 1697 3084 1428 2787 
Q 1159 2491 1159 1978 
L 1159 0 
L 581 0 
L 581 3500 
L 1159 3500 
L 1159 2956 
Q 1366 3272 1645 3428 
Q 1925 3584 2291 3584 
Q 2894 3584 3203 3211 
Q 3513 2838 3513 2113 
z
" transform="scale(0.015625)"/>
      </defs>
      <use xlink:href="#DejaVuSans-50"/>
      <use xlink:href="#DejaVuSans-72" x="58.552734"/>
      <use xlink:href="#DejaVuSans-65" x="97.416016"/>
      <use xlink:href="#DejaVuSans-64" x="158.939453"/>
      <use xlink:href="#DejaVuSans-69" x="222.416016"/>
      <use xlink:href="#DejaVuSans-63" x="250.199219"/>
      <use xlink:href="#DejaVuSans-74" x="305.179688"/>
      <use xlink:href="#DejaVuSans-69" x="344.388672"/>
      <use xlink:href="#DejaVuSans-6f" x="372.171875"/>
      <use xlink:href="#DejaVuSans-6e" x="433.353516"/>
     </g>
    </g>
   </g>
   <g id="PolyCollection_1"/>
   <g id="PolyCollection_2"/>
   <g id="PolyCollection_3"/>
   <g id="line2d_1">
    <path d="M 64.427038 45.271651 
L 64.969862 69.916688 
L 65.784098 81.187382 
L 66.598335 86.466623 
L 67.141159 89.095049 
L 67.955396 91.401488 
L 68.49822 93.478599 
L 69.041045 95.672544 
L 70.126693 99.142737 
L 71.212342 101.114955 
L 72.026578 102.968516 
L 91.839667 153.989436 
L 92.925314 155.453215 
L 94.282375 157.00245 
L 96.182261 158.842986 
L 98.624971 160.827933 
L 110.024281 169.629763 
L 113.281226 171.15313 
L 146.936332 184.990568 
L 149.921867 185.668053 
L 152.635989 186.067223 
L 155.621524 186.356515 
L 162.135415 186.672294 
L 177.334497 187.006692 
L 201.761591 187.158312 
L 253.601315 187.250993 
L 335.56779 187.146876 
L 335.56779 187.146876 
" clip-path="url(#pee9132904b)" style="fill: none; stroke: #1f77b4; stroke-width: 1.5; stroke-linecap: round"/>
   </g>
   <g id="line2d_2">
    <path d="M 64.427038 32.460909 
L 64.969862 60.90665 
L 65.241274 65.847292 
L 65.512686 72.936917 
L 65.784098 75.897908 
L 66.055511 76.938216 
L 67.412571 77.952975 
L 67.955396 78.033693 
L 68.49822 78.238088 
L 69.312457 78.866127 
L 69.855281 80.112203 
L 70.669518 83.072013 
L 71.483754 87.565567 
L 75.283524 108.38426 
L 76.911998 116.858705 
L 78.811883 125.564231 
L 80.711767 133.260339 
L 83.6973 144.535468 
L 85.054361 148.632205 
L 86.411422 151.820302 
L 87.497071 153.925614 
L 88.58272 155.392667 
L 89.939781 156.723025 
L 91.568253 157.714192 
L 137.165501 183.630778 
L 138.522562 183.933904 
L 140.693856 183.949814 
L 286.170774 183.61489 
L 335.56779 183.507075 
L 335.56779 183.507075 
" clip-path="url(#pee9132904b)" style="fill: none; stroke: #ff7f0e; stroke-width: 1.5; stroke-linecap: round"/>
   </g>
   <g id="line2d_3">
    <path d="M 64.427038 36.876287 
L 64.69845 53.001487 
L 64.969862 62.431703 
L 65.512686 69.693574 
L 66.055511 71.895826 
L 66.869747 72.938484 
L 69.855281 76.040997 
L 70.669518 76.501874 
L 71.212342 77.020706 
L 71.755166 77.846977 
L 72.026578 78.453691 
L 73.112227 82.397458 
L 82.611653 117.796662 
L 101.067679 149.928899 
L 121.423591 179.552683 
L 122.509242 180.705338 
L 123.594889 181.436204 
L 124.68054 181.900409 
L 126.309011 182.354475 
L 127.394662 182.334883 
L 132.551491 181.73697 
L 335.56779 154.64929 
L 335.56779 154.64929 
" clip-path="url(#pee9132904b)" style="fill: none; stroke: #2ca02c; stroke-width: 1.5; stroke-linecap: round"/>
   </g>
   <g id="line2d_4"/>
   <g id="line2d_5"/>
   <g id="line2d_6"/>
   <g id="line2d_7">
    <path d="M 64.427038 51.8005 
L 66.598335 66.085851 
L 68.769632 78.754313 
L 70.94093 89.988878 
L 73.112227 99.951843 
L 75.283524 108.787144 
L 77.454822 116.622399 
L 79.626119 123.570816 
L 81.797416 129.732775 
L 83.968714 135.197288 
L 86.14001 140.043288 
L 88.311308 144.340786 
L 90.482606 148.151871 
L 92.653903 151.531594 
L 94.825201 154.528778 
L 96.996497 157.186726 
L 99.439209 159.819054 
L 101.881916 162.11865 
L 104.324624 164.127568 
L 107.038746 166.063317 
L 109.752867 167.729183 
L 112.738403 169.294668 
L 115.995348 170.731942 
L 119.523707 172.022842 
L 123.323479 173.158257 
L 127.394662 174.137029 
L 132.008668 175.009931 
L 137.165501 175.754983 
L 143.136564 176.389843 
L 150.193281 176.914054 
L 159.149879 177.342956 
L 170.820607 177.661084 
L 187.37675 177.87143 
L 216.146441 177.983179 
L 304.626798 178.011534 
L 335.56779 178.011711 
L 335.56779 178.011711 
" clip-path="url(#pee9132904b)" style="fill: none; stroke-dasharray: 7.4,3.2; stroke-dashoffset: 0; stroke: #000000; stroke-opacity: 0.5; stroke-width: 2"/>
   </g>
   <g id="patch_3">
    <path d="M 50.87 195.02 
L 50.87 24.72 
" style="fill: none; stroke: #262626; stroke-width: 0.8; stroke-linejoin: miter; stroke-linecap: square"/>
   </g>
   <g id="patch_4">
    <path d="M 50.87 195.02 
L 349.124828 195.02 
" style="fill: none; stroke: #262626; stroke-width: 0.8; stroke-linejoin: miter; stroke-linecap: square"/>
   </g>
   <g id="text_7">
    <!-- Topological Loss -->
    <g style="fill: #262626" transform="translate(159.730226 18.72) scale(0.1 -0.1)">
     <defs>
      <path id="DejaVuSans-54" d="M -19 4666 
L 3928 4666 
L 3928 4134 
L 2272 4134 
L 2272 0 
L 1638 0 
L 1638 4134 
L -19 4134 
L -19 4666 
z
" transform="scale(0.015625)"/>
      <path id="DejaVuSans-70" d="M 1159 525 
L 1159 -1331 
L 581 -1331 
L 581 3500 
L 1159 3500 
L 1159 2969 
Q 1341 3281 1617 3432 
Q 1894 3584 2278 3584 
Q 2916 3584 3314 3078 
Q 3713 2572 3713 1747 
Q 3713 922 3314 415 
Q 2916 -91 2278 -91 
Q 1894 -91 1617 61 
Q 1341 213 1159 525 
z
M 3116 1747 
Q 3116 2381 2855 2742 
Q 2594 3103 2138 3103 
Q 1681 3103 1420 2742 
Q 1159 2381 1159 1747 
Q 1159 1113 1420 752 
Q 1681 391 2138 391 
Q 2594 391 2855 752 
Q 3116 1113 3116 1747 
z
" transform="scale(0.015625)"/>
      <path id="DejaVuSans-6c" d="M 603 4863 
L 1178 4863 
L 1178 0 
L 603 0 
L 603 4863 
z
" transform="scale(0.015625)"/>
      <path id="DejaVuSans-67" d="M 2906 1791 
Q 2906 2416 2648 2759 
Q 2391 3103 1925 3103 
Q 1463 3103 1205 2759 
Q 947 2416 947 1791 
Q 947 1169 1205 825 
Q 1463 481 1925 481 
Q 2391 481 2648 825 
Q 2906 1169 2906 1791 
z
M 3481 434 
Q 3481 -459 3084 -895 
Q 2688 -1331 1869 -1331 
Q 1566 -1331 1297 -1286 
Q 1028 -1241 775 -1147 
L 775 -588 
Q 1028 -725 1275 -790 
Q 1522 -856 1778 -856 
Q 2344 -856 2625 -561 
Q 2906 -266 2906 331 
L 2906 616 
Q 2728 306 2450 153 
Q 2172 0 1784 0 
Q 1141 0 747 490 
Q 353 981 353 1791 
Q 353 2603 747 3093 
Q 1141 3584 1784 3584 
Q 2172 3584 2450 3431 
Q 2728 3278 2906 2969 
L 2906 3500 
L 3481 3500 
L 3481 434 
z
" transform="scale(0.015625)"/>
      <path id="DejaVuSans-61" d="M 2194 1759 
Q 1497 1759 1228 1600 
Q 959 1441 959 1056 
Q 959 750 1161 570 
Q 1363 391 1709 391 
Q 2188 391 2477 730 
Q 2766 1069 2766 1631 
L 2766 1759 
L 2194 1759 
z
M 3341 1997 
L 3341 0 
L 2766 0 
L 2766 531 
Q 2569 213 2275 61 
Q 1981 -91 1556 -91 
Q 1019 -91 701 211 
Q 384 513 384 1019 
Q 384 1609 779 1909 
Q 1175 2209 1959 2209 
L 2766 2209 
L 2766 2266 
Q 2766 2663 2505 2880 
Q 2244 3097 1772 3097 
Q 1472 3097 1187 3025 
Q 903 2953 641 2809 
L 641 3341 
Q 956 3463 1253 3523 
Q 1550 3584 1831 3584 
Q 2591 3584 2966 3190 
Q 3341 2797 3341 1997 
z
" transform="scale(0.015625)"/>
      <path id="DejaVuSans-20" transform="scale(0.015625)"/>
      <path id="DejaVuSans-4c" d="M 628 4666 
L 1259 4666 
L 1259 531 
L 3531 531 
L 3531 0 
L 628 0 
L 628 4666 
z
" transform="scale(0.015625)"/>
      <path id="DejaVuSans-73" d="M 2834 3397 
L 2834 2853 
Q 2591 2978 2328 3040 
Q 2066 3103 1784 3103 
Q 1356 3103 1142 2972 
Q 928 2841 928 2578 
Q 928 2378 1081 2264 
Q 1234 2150 1697 2047 
L 1894 2003 
Q 2506 1872 2764 1633 
Q 3022 1394 3022 966 
Q 3022 478 2636 193 
Q 2250 -91 1575 -91 
Q 1294 -91 989 -36 
Q 684 19 347 128 
L 347 722 
Q 666 556 975 473 
Q 1284 391 1588 391 
Q 1994 391 2212 530 
Q 2431 669 2431 922 
Q 2431 1156 2273 1281 
Q 2116 1406 1581 1522 
L 1381 1569 
Q 847 1681 609 1914 
Q 372 2147 372 2553 
Q 372 3047 722 3315 
Q 1072 3584 1716 3584 
Q 2034 3584 2315 3537 
Q 2597 3491 2834 3397 
z
" transform="scale(0.015625)"/>
     </defs>
     <use xlink:href="#DejaVuSans-54"/>
     <use xlink:href="#DejaVuSans-6f" x="44.083984"/>
     <use xlink:href="#DejaVuSans-70" x="105.265625"/>
     <use xlink:href="#DejaVuSans-6f" x="168.742188"/>
     <use xlink:href="#DejaVuSans-6c" x="229.923828"/>
     <use xlink:href="#DejaVuSans-6f" x="257.707031"/>
     <use xlink:href="#DejaVuSans-67" x="318.888672"/>
     <use xlink:href="#DejaVuSans-69" x="382.365234"/>
     <use xlink:href="#DejaVuSans-63" x="410.148438"/>
     <use xlink:href="#DejaVuSans-61" x="465.128906"/>
     <use xlink:href="#DejaVuSans-6c" x="526.408203"/>
     <use xlink:href="#DejaVuSans-20" x="554.191406"/>
     <use xlink:href="#DejaVuSans-4c" x="585.978516"/>
     <use xlink:href="#DejaVuSans-6f" x="639.941406"/>
     <use xlink:href="#DejaVuSans-73" x="701.123047"/>
     <use xlink:href="#DejaVuSans-73" x="753.222656"/>
    </g>
   </g>
  </g>
  <g id="axes_2">
   <g id="patch_5">
    <path d="M 50.87 390.04 
L 349.124828 390.04 
L 349.124828 219.74 
L 50.87 219.74 
L 50.87 390.04 
z
" style="fill: none"/>
   </g>
   <g id="matplotlib.axis_3">
    <g id="xtick_7">
     <g id="text_8">
      <!-- 0 -->
      <g style="fill: #262626" transform="translate(61.245788 404.638438) scale(0.1 -0.1)">
       <use xlink:href="#DejaVuSans-30"/>
      </g>
     </g>
    </g>
    <g id="xtick_8">
     <g id="text_9">
      <!-- 200 -->
      <g style="fill: #262626" transform="translate(109.111438 404.638438) scale(0.1 -0.1)">
       <use xlink:href="#DejaVuSans-32"/>
       <use xlink:href="#DejaVuSans-30" x="63.623047"/>
       <use xlink:href="#DejaVuSans-30" x="127.246094"/>
      </g>
     </g>
    </g>
    <g id="xtick_9">
     <g id="text_10">
      <!-- 400 -->
      <g style="fill: #262626" transform="translate(163.339589 404.638438) scale(0.1 -0.1)">
       <use xlink:href="#DejaVuSans-34"/>
       <use xlink:href="#DejaVuSans-30" x="63.623047"/>
       <use xlink:href="#DejaVuSans-30" x="127.246094"/>
      </g>
     </g>
    </g>
    <g id="xtick_10">
     <g id="text_11">
      <!-- 600 -->
      <g style="fill: #262626" transform="translate(217.567739 404.638438) scale(0.1 -0.1)">
       <use xlink:href="#DejaVuSans-36"/>
       <use xlink:href="#DejaVuSans-30" x="63.623047"/>
       <use xlink:href="#DejaVuSans-30" x="127.246094"/>
      </g>
     </g>
    </g>
    <g id="xtick_11">
     <g id="text_12">
      <!-- 800 -->
      <g style="fill: #262626" transform="translate(271.79589 404.638438) scale(0.1 -0.1)">
       <use xlink:href="#DejaVuSans-38"/>
       <use xlink:href="#DejaVuSans-30" x="63.623047"/>
       <use xlink:href="#DejaVuSans-30" x="127.246094"/>
      </g>
     </g>
    </g>
    <g id="xtick_12">
     <g id="text_13">
      <!-- 1000 -->
      <g style="fill: #262626" transform="translate(322.84279 404.638438) scale(0.1 -0.1)">
       <use xlink:href="#DejaVuSans-31"/>
       <use xlink:href="#DejaVuSans-30" x="63.623047"/>
       <use xlink:href="#DejaVuSans-30" x="127.246094"/>
       <use xlink:href="#DejaVuSans-30" x="190.869141"/>
      </g>
     </g>
    </g>
    <g id="text_14">
     <!-- Times -->
     <g style="fill: #262626" transform="translate(185.159133 418.316562) scale(0.1 -0.1)">
      <defs>
       <path id="DejaVuSans-6d" d="M 3328 2828 
Q 3544 3216 3844 3400 
Q 4144 3584 4550 3584 
Q 5097 3584 5394 3201 
Q 5691 2819 5691 2113 
L 5691 0 
L 5113 0 
L 5113 2094 
Q 5113 2597 4934 2840 
Q 4756 3084 4391 3084 
Q 3944 3084 3684 2787 
Q 3425 2491 3425 1978 
L 3425 0 
L 2847 0 
L 2847 2094 
Q 2847 2600 2669 2842 
Q 2491 3084 2119 3084 
Q 1678 3084 1418 2786 
Q 1159 2488 1159 1978 
L 1159 0 
L 581 0 
L 581 3500 
L 1159 3500 
L 1159 2956 
Q 1356 3278 1631 3431 
Q 1906 3584 2284 3584 
Q 2666 3584 2933 3390 
Q 3200 3197 3328 2828 
z
" transform="scale(0.015625)"/>
      </defs>
      <use xlink:href="#DejaVuSans-54"/>
      <use xlink:href="#DejaVuSans-69" x="57.958984"/>
      <use xlink:href="#DejaVuSans-6d" x="85.742188"/>
      <use xlink:href="#DejaVuSans-65" x="183.154297"/>
      <use xlink:href="#DejaVuSans-73" x="244.677734"/>
     </g>
    </g>
   </g>
   <g id="matplotlib.axis_4">
    <g id="ytick_6">
     <g id="text_15">
      <!-- 20 -->
      <g style="fill: #262626" transform="translate(31.145 385.245051) scale(0.1 -0.1)">
       <use xlink:href="#DejaVuSans-32"/>
       <use xlink:href="#DejaVuSans-30" x="63.623047"/>
      </g>
     </g>
    </g>
    <g id="ytick_7">
     <g id="text_16">
      <!-- 40 -->
      <g style="fill: #262626" transform="translate(31.145 351.588718) scale(0.1 -0.1)">
       <use xlink:href="#DejaVuSans-34"/>
       <use xlink:href="#DejaVuSans-30" x="63.623047"/>
      </g>
     </g>
    </g>
    <g id="ytick_8">
     <g id="text_17">
      <!-- 60 -->
      <g style="fill: #262626" transform="translate(31.145 317.932385) scale(0.1 -0.1)">
       <use xlink:href="#DejaVuSans-36"/>
       <use xlink:href="#DejaVuSans-30" x="63.623047"/>
      </g>
     </g>
    </g>
    <g id="ytick_9">
     <g id="text_18">
      <!-- 80 -->
      <g style="fill: #262626" transform="translate(31.145 284.276052) scale(0.1 -0.1)">
       <use xlink:href="#DejaVuSans-38"/>
       <use xlink:href="#DejaVuSans-30" x="63.623047"/>
      </g>
     </g>
    </g>
    <g id="ytick_10">
     <g id="text_19">
      <!-- 100 -->
      <g style="fill: #262626" transform="translate(24.7825 250.619719) scale(0.1 -0.1)">
       <use xlink:href="#DejaVuSans-31"/>
       <use xlink:href="#DejaVuSans-30" x="63.623047"/>
       <use xlink:href="#DejaVuSans-30" x="127.246094"/>
      </g>
     </g>
    </g>
    <g id="text_20">
     <!-- Prediction -->
     <g style="fill: #262626" transform="translate(18.702813 329.726719) rotate(-90) scale(0.1 -0.1)">
      <use xlink:href="#DejaVuSans-50"/>
      <use xlink:href="#DejaVuSans-72" x="58.552734"/>
      <use xlink:href="#DejaVuSans-65" x="97.416016"/>
      <use xlink:href="#DejaVuSans-64" x="158.939453"/>
      <use xlink:href="#DejaVuSans-69" x="222.416016"/>
      <use xlink:href="#DejaVuSans-63" x="250.199219"/>
      <use xlink:href="#DejaVuSans-74" x="305.179688"/>
      <use xlink:href="#DejaVuSans-69" x="344.388672"/>
      <use xlink:href="#DejaVuSans-6f" x="372.171875"/>
      <use xlink:href="#DejaVuSans-6e" x="433.353516"/>
     </g>
    </g>
   </g>
   <g id="PolyCollection_4"/>
   <g id="PolyCollection_5"/>
   <g id="PolyCollection_6"/>
   <g id="line2d_8">
    <path d="M 64.427038 238.896592 
L 64.69845 259.852341 
L 64.969862 269.059224 
L 65.241274 269.426031 
L 65.512686 268.33171 
L 66.055511 267.49224 
L 66.326923 267.917913 
L 67.141159 270.098364 
L 67.412571 270.786438 
L 67.955396 271.478543 
L 68.226808 271.993048 
L 69.312457 275.295308 
L 70.126693 279.224722 
L 74.197876 302.089328 
L 75.554937 307.692405 
L 84.511538 337.076969 
L 85.868599 340.530722 
L 86.954248 342.843908 
L 89.396957 347.105746 
L 90.482606 348.481084 
L 91.296842 349.239188 
L 96.453673 352.97442 
L 119.252297 369.326916 
L 123.594889 371.225743 
L 137.436907 377.08716 
L 138.793967 377.222363 
L 141.508089 377.237667 
L 147.750574 376.980559 
L 335.56779 368.756453 
L 335.56779 368.756453 
" clip-path="url(#pced2a9da09)" style="fill: none; stroke: #1f77b4; stroke-width: 1.5; stroke-linecap: round"/>
   </g>
   <g id="line2d_9">
    <path d="M 64.427038 240.796694 
L 64.69845 263.957236 
L 64.969862 273.534316 
L 65.241274 277.838984 
L 65.784098 280.723532 
L 66.055511 280.6991 
L 66.326923 281.241067 
L 67.955396 286.460351 
L 69.041045 288.427459 
L 69.855281 289.685848 
L 70.669518 291.597492 
L 71.212342 293.366766 
L 72.026578 296.851813 
L 74.469288 308.223754 
L 75.554937 312.220251 
L 77.183409 317.435067 
L 82.068828 330.000683 
L 82.611653 331.003656 
L 100.796269 350.668167 
L 127.666071 366.494385 
L 129.023132 366.403492 
L 335.56779 345.37106 
L 335.56779 345.37106 
" clip-path="url(#pced2a9da09)" style="fill: none; stroke: #ff7f0e; stroke-width: 1.5; stroke-linecap: round"/>
   </g>
   <g id="line2d_10">
    <path d="M 64.427038 239.111579 
L 64.69845 258.164055 
L 64.969862 262.761655 
L 65.512686 263.225896 
L 65.784098 263.811733 
L 66.326923 265.6996 
L 67.683984 272.244189 
L 71.483754 291.8024 
L 73.383639 299.730237 
L 74.197876 301.525651 
L 94.825201 344.183856 
L 97.26791 348.570302 
L 98.082146 349.752357 
L 98.896383 350.472342 
L 100.253442 351.266722 
L 147.207746 376.161125 
L 149.921867 377.105449 
L 152.907403 377.810872 
L 155.621524 378.116414 
L 160.778354 378.503224 
L 179.777205 379.62286 
L 195.790529 380.201672 
L 209.361137 380.302402 
L 215.875019 380.200587 
L 235.416697 379.674967 
L 271.785933 378.112177 
L 292.684673 377.025068 
L 329.59672 374.717002 
L 335.56779 374.300811 
L 335.56779 374.300811 
" clip-path="url(#pced2a9da09)" style="fill: none; stroke: #2ca02c; stroke-width: 1.5; stroke-linecap: round"/>
   </g>
   <g id="line2d_11">
    <path d="M 64.427038 246.8205 
L 66.598335 261.105851 
L 68.769632 273.774313 
L 70.94093 285.008878 
L 73.112227 294.971843 
L 75.283524 303.807144 
L 77.454822 311.642399 
L 79.626119 318.590816 
L 81.797416 324.752775 
L 83.968714 330.217288 
L 86.14001 335.063288 
L 88.311308 339.360786 
L 90.482606 343.171871 
L 92.653903 346.551594 
L 94.825201 349.548778 
L 96.996497 352.206726 
L 99.439209 354.839054 
L 101.881916 357.13865 
L 104.324624 359.147568 
L 107.038746 361.083317 
L 109.752867 362.749183 
L 112.738403 364.314668 
L 115.995348 365.751942 
L 119.523707 367.042842 
L 123.323479 368.178257 
L 127.394662 369.157029 
L 132.008668 370.029931 
L 137.165501 370.774983 
L 143.136564 371.409843 
L 150.193281 371.934054 
L 159.149879 372.362956 
L 170.820607 372.681084 
L 187.37675 372.89143 
L 216.146441 373.003179 
L 304.626798 373.031534 
L 335.56779 373.031711 
L 335.56779 373.031711 
" clip-path="url(#pced2a9da09)" style="fill: none; stroke-dasharray: 7.4,3.2; stroke-dashoffset: 0; stroke: #000000; stroke-opacity: 0.5; stroke-width: 2"/>
   </g>
   <g id="patch_6">
    <path d="M 50.87 390.04 
L 50.87 219.74 
" style="fill: none; stroke: #262626; stroke-width: 0.8; stroke-linejoin: miter; stroke-linecap: square"/>
   </g>
   <g id="patch_7">
    <path d="M 50.87 390.04 
L 349.124828 390.04 
" style="fill: none; stroke: #262626; stroke-width: 0.8; stroke-linejoin: miter; stroke-linecap: square"/>
   </g>
   <g id="text_21">
    <!-- Physical Loss -->
    <g style="fill: #262626" transform="translate(167.102101 213.74) scale(0.1 -0.1)">
     <defs>
      <path id="DejaVuSans-68" d="M 3513 2113 
L 3513 0 
L 2938 0 
L 2938 2094 
Q 2938 2591 2744 2837 
Q 2550 3084 2163 3084 
Q 1697 3084 1428 2787 
Q 1159 2491 1159 1978 
L 1159 0 
L 581 0 
L 581 4863 
L 1159 4863 
L 1159 2956 
Q 1366 3272 1645 3428 
Q 1925 3584 2291 3584 
Q 2894 3584 3203 3211 
Q 3513 2838 3513 2113 
z
" transform="scale(0.015625)"/>
      <path id="DejaVuSans-79" d="M 2059 -325 
Q 1816 -950 1584 -1140 
Q 1353 -1331 966 -1331 
L 506 -1331 
L 506 -850 
L 844 -850 
Q 1081 -850 1212 -737 
Q 1344 -625 1503 -206 
L 1606 56 
L 191 3500 
L 800 3500 
L 1894 763 
L 2988 3500 
L 3597 3500 
L 2059 -325 
z
" transform="scale(0.015625)"/>
     </defs>
     <use xlink:href="#DejaVuSans-50"/>
     <use xlink:href="#DejaVuSans-68" x="60.302734"/>
     <use xlink:href="#DejaVuSans-79" x="123.681641"/>
     <use xlink:href="#DejaVuSans-73" x="182.861328"/>
     <use xlink:href="#DejaVuSans-69" x="234.960938"/>
     <use xlink:href="#DejaVuSans-63" x="262.744141"/>
     <use xlink:href="#DejaVuSans-61" x="317.724609"/>
     <use xlink:href="#DejaVuSans-6c" x="379.003906"/>
     <use xlink:href="#DejaVuSans-20" x="406.787109"/>
     <use xlink:href="#DejaVuSans-4c" x="438.574219"/>
     <use xlink:href="#DejaVuSans-6f" x="492.537109"/>
     <use xlink:href="#DejaVuSans-73" x="553.71875"/>
     <use xlink:href="#DejaVuSans-73" x="605.818359"/>
    </g>
   </g>
  </g>
  <g id="legend_1">
   <g id="text_22">
    <!-- Noise Intensity -->
    <g style="fill: #262626" transform="translate(243.22025 67.142187) scale(0.1 -0.1)">
     <defs>
      <path id="DejaVuSans-4e" d="M 628 4666 
L 1478 4666 
L 3547 763 
L 3547 4666 
L 4159 4666 
L 4159 0 
L 3309 0 
L 1241 3903 
L 1241 0 
L 628 0 
L 628 4666 
z
" transform="scale(0.015625)"/>
      <path id="DejaVuSans-49" d="M 628 4666 
L 1259 4666 
L 1259 0 
L 628 0 
L 628 4666 
z
" transform="scale(0.015625)"/>
     </defs>
     <use xlink:href="#DejaVuSans-4e"/>
     <use xlink:href="#DejaVuSans-6f" x="74.804688"/>
     <use xlink:href="#DejaVuSans-69" x="135.986328"/>
     <use xlink:href="#DejaVuSans-73" x="163.769531"/>
     <use xlink:href="#DejaVuSans-65" x="215.869141"/>
     <use xlink:href="#DejaVuSans-20" x="277.392578"/>
     <use xlink:href="#DejaVuSans-49" x="309.179688"/>
     <use xlink:href="#DejaVuSans-6e" x="338.671875"/>
     <use xlink:href="#DejaVuSans-74" x="402.050781"/>
     <use xlink:href="#DejaVuSans-65" x="441.259766"/>
     <use xlink:href="#DejaVuSans-6e" x="502.783203"/>
     <use xlink:href="#DejaVuSans-73" x="566.162109"/>
     <use xlink:href="#DejaVuSans-69" x="618.261719"/>
     <use xlink:href="#DejaVuSans-74" x="646.044922"/>
     <use xlink:href="#DejaVuSans-79" x="685.253906"/>
    </g>
   </g>
   <g id="line2d_12">
    <path d="M 263.260875 78.320312 
L 273.260875 78.320312 
L 283.260875 78.320312 
" style="fill: none; stroke: #1f77b4; stroke-width: 1.5; stroke-linecap: round"/>
   </g>
   <g id="text_23">
    <!-- 4 -->
    <g style="fill: #262626" transform="translate(291.260875 81.820312) scale(0.1 -0.1)">
     <use xlink:href="#DejaVuSans-34"/>
    </g>
   </g>
   <g id="line2d_13">
    <path d="M 263.260875 92.998438 
L 273.260875 92.998438 
L 283.260875 92.998438 
" style="fill: none; stroke: #ff7f0e; stroke-width: 1.5; stroke-linecap: round"/>
   </g>
   <g id="text_24">
    <!-- 6 -->
    <g style="fill: #262626" transform="translate(291.260875 96.498438) scale(0.1 -0.1)">
     <use xlink:href="#DejaVuSans-36"/>
    </g>
   </g>
   <g id="line2d_14">
    <path d="M 263.260875 107.676562 
L 273.260875 107.676562 
L 283.260875 107.676562 
" style="fill: none; stroke: #2ca02c; stroke-width: 1.5; stroke-linecap: round"/>
   </g>
   <g id="text_25">
    <!-- 8 -->
    <g style="fill: #262626" transform="translate(291.260875 111.176562) scale(0.1 -0.1)">
     <use xlink:href="#DejaVuSans-38"/>
    </g>
   </g>
  </g>
 </g>
 <defs>
  <clipPath id="pee9132904b">
   <rect x="50.87" y="24.72" width="298.254828" height="170.3"/>
  </clipPath>
  <clipPath id="pced2a9da09">
   <rect x="50.87" y="219.74" width="298.254828" height="170.3"/>
  </clipPath>
 </defs>
</svg>
